<?xml version="1.0" encoding="utf-8"?>
<svg version="1.1" id="Layer_1" x="0px" y="0px" width="100%" viewBox="0 0 262 262" enable-background="new 0 0 262 262" xmlns="http://www.w3.org/2000/svg">
  <defs/>
  <path fill="#F3EAFF" opacity="1.000000" stroke="none" d="&#10;M262.167267,118.973923 &#10;&#9;C262.167267,118.973923 262.584045,118.973236 262.792023,118.986618 &#10;&#9;C263.000000,126.687584 263.000000,134.375168 263.000000,142.531372 &#10;&#9;C263.000000,143.000000 262.583130,143.024979 262.310181,142.558502 &#10;&#9;C262.080566,134.386002 262.123932,126.679962 262.167267,118.973923 &#10;z"/>
  <path fill="#FFFAEB" opacity="1.000000" stroke="none" d="&#10;M144.531372,1.000000 &#10;&#9;C145.000000,1.000000 145.004974,1.474111 144.539978,1.744228 &#10;&#9;C136.379150,1.990670 128.683334,1.966995 120.987511,1.943319 &#10;&#9;C120.987511,1.943319 120.994392,1.471668 120.997192,1.235834 &#10;&#9;C128.687576,1.000000 136.375168,1.000000 144.531372,1.000000 &#10;z"/>
  <path fill="#010102" opacity="1.000000" stroke="none" d="&#10;M259.333282,160.063416 &#10;&#9;C255.524567,179.487946 246.969772,196.726334 234.712646,212.094315 &#10;&#9;C212.579880,239.844345 183.744110,256.484283 148.597321,260.753601 &#10;&#9;C110.031830,265.438232 75.636818,254.649109 46.281147,229.003754 &#10;&#9;C28.404459,213.386520 15.824069,194.111588 8.557289,171.452011 &#10;&#9;C8.316988,170.702682 8.360048,169.862473 8.670166,168.559250 &#10;&#9;C15.697859,158.340759 24.505211,151.434921 35.982010,148.691696 &#10;&#9;C42.251312,147.193192 48.792751,146.732956 55.240288,146.096405 &#10;&#9;C101.945808,141.485229 148.658569,136.947418 195.369446,132.390610 &#10;&#9;C198.682602,132.067413 202.026657,131.955353 205.309586,131.444489 &#10;&#9;C232.743546,127.175446 250.779953,140.215286 259.333282,160.063416 &#10;M102.978638,196.479156 &#10;&#9;C106.040878,193.422531 109.167824,190.427444 112.148315,187.293076 &#10;&#9;C115.558395,183.706894 115.627098,179.754623 112.506081,176.704468 &#10;&#9;C109.628250,173.891953 105.626106,173.967041 102.284645,177.159912 &#10;&#9;C98.075943,181.181458 94.002937,185.346375 89.912369,189.489899 &#10;&#9;C81.055336,198.461563 72.224380,207.458984 63.160782,216.671478 &#10;&#9;C57.009090,210.527832 51.433846,204.858597 45.738468,199.312714 &#10;&#9;C42.684662,196.339066 39.144371,196.031738 35.893284,198.842575 &#10;&#9;C32.830536,201.490601 32.147327,205.348618 34.868645,208.190491 &#10;&#9;C44.014992,217.742020 53.573597,226.898788 63.249714,236.479141 &#10;&#9;C76.470901,223.176331 89.481987,210.084915 102.978638,196.479156 &#10;z"/>
  <path fill="#9B82F5" opacity="1.000000" stroke="none" d="&#10;M259.570496,159.777893 &#10;&#9;C250.779953,140.215286 232.743546,127.175446 205.309586,131.444489 &#10;&#9;C202.026657,131.955353 198.682602,132.067413 195.369446,132.390610 &#10;&#9;C148.658569,136.947418 101.945808,141.485229 55.240288,146.096405 &#10;&#9;C48.792751,146.732956 42.251312,147.193192 35.982010,148.691696 &#10;&#9;C24.505211,151.434921 15.697859,158.340759 8.765511,168.199219 &#10;&#9;C6.980352,163.542664 4.944752,158.835251 4.107331,153.923553 &#10;&#9;C-1.444618,121.359840 4.593746,90.956795 22.155323,62.324261 &#10;&#9;C22.792879,61.625607 23.030266,61.350487 23.267651,61.075367 &#10;&#9;C23.502274,61.018909 23.703558,60.904037 24.350304,60.490044 &#10;&#9;C29.026115,58.778252 33.141655,56.421593 37.437649,56.026344 &#10;&#9;C45.575058,55.277676 53.816002,55.654312 62.385452,55.671612 &#10;&#9;C63.528095,55.789883 64.299210,55.799976 65.483955,55.904438 &#10;&#9;C74.156288,56.790787 82.417068,57.561890 90.673286,58.378979 &#10;&#9;C109.489563,60.241158 128.305771,62.104546 147.117752,64.009346 &#10;&#9;C158.667267,65.178780 170.201553,66.502769 181.756622,67.611977 &#10;&#9;C190.165375,68.419151 198.596970,68.988602 207.411285,69.750801 &#10;&#9;C208.874985,69.835648 209.945801,69.833733 211.405899,69.962738 &#10;&#9;C213.422928,70.362503 215.041626,70.770317 216.679916,70.877029 &#10;&#9;C225.585037,71.457039 233.970322,73.641197 241.466782,78.671005 &#10;&#9;C243.642624,80.130920 245.800186,81.618095 248.065994,83.302002 &#10;&#9;C248.352951,83.774803 248.602539,83.948677 249.040527,84.330887 &#10;&#9;C250.070618,85.464386 250.974808,86.299866 251.933472,87.104477 &#10;&#9;C251.987930,87.073616 251.863754,87.089645 251.919373,87.404022 &#10;&#9;C252.595093,88.206642 253.215164,88.694870 253.814575,89.192436 &#10;&#9;C253.793915,89.201775 253.789551,89.246910 253.804535,89.583923 &#10;&#9;C254.890930,91.616257 255.962326,93.311577 257.033722,95.006897 &#10;&#9;C258.382538,100.362854 259.731354,105.718811 261.043335,111.969460 &#10;&#9;C261.017273,125.603035 261.028076,138.341919 261.038879,151.080795 &#10;&#9;C260.628510,153.884659 260.218109,156.688507 259.570496,159.777893 &#10;z"/>
  <path fill="#FBE7A2" opacity="1.000000" stroke="none" d="&#10;M248.914612,84.032867 &#10;&#9;C248.602539,83.948677 248.352951,83.774803 248.053101,82.944016 &#10;&#9;C244.957901,79.582352 241.975418,76.787918 239.276154,73.957214 &#10;&#9;C239.882126,73.618965 240.204865,73.316978 240.527618,73.014999 &#10;&#9;C240.318573,72.835121 240.109528,72.655243 239.900497,72.475357 &#10;&#9;C239.602509,72.985901 239.304520,73.496452 238.604050,74.007042 &#10;&#9;C233.125076,72.627762 228.113327,70.863113 222.950851,69.995438 &#10;&#9;C219.073151,69.343689 215.001755,69.844246 211.016602,69.831802 &#10;&#9;C209.945801,69.833733 208.874985,69.835648 207.288345,69.398560 &#10;&#9;C206.218262,68.653397 205.688065,68.139473 205.106186,68.072174 &#10;&#9;C196.073273,67.027336 187.031265,66.061691 177.996567,65.031845 &#10;&#9;C172.768021,64.435852 167.564606,63.537418 162.322189,63.161201 &#10;&#9;C150.003647,62.277180 137.650574,61.840302 125.345009,60.818626 &#10;&#9;C113.060326,59.798683 100.815842,58.292957 88.555626,56.982433 &#10;&#9;C87.245667,56.842411 85.953285,56.450413 84.644424,56.402428 &#10;&#9;C78.121254,56.163250 71.595299,56.000023 65.070328,55.810066 &#10;&#9;C64.299210,55.799976 63.528095,55.789883 62.356644,55.296204 &#10;&#9;C61.452911,54.239872 60.962875,53.180630 60.444141,53.166378 &#10;&#9;C50.518631,52.893738 40.556087,52.317448 30.872282,55.336956 &#10;&#9;C29.209780,55.855335 27.570644,56.448654 25.920715,57.007355 &#10;&#9;C34.698551,42.779449 46.632504,31.486250 60.699234,22.942257 &#10;&#9;C71.214653,16.555294 82.916931,12.113144 94.140762,6.913029 &#10;&#9;C95.590012,6.241579 97.339813,6.218808 99.844513,5.930324 &#10;&#9;C122.244942,5.940803 143.751251,5.916511 165.257553,5.892218 &#10;&#9;C177.056305,7.377369 187.492188,12.629827 197.512390,18.445515 &#10;&#9;C223.816208,33.712185 242.662872,55.617153 253.935318,83.932968 &#10;&#9;C254.480194,85.301628 254.755432,86.777618 254.831207,88.632141 &#10;&#9;C254.267288,89.122734 254.028427,89.184822 253.789551,89.246910 &#10;&#9;C253.789551,89.246910 253.793915,89.201775 253.766251,88.882568 &#10;&#9;C253.113647,88.072121 252.488708,87.580879 251.863754,87.089645 &#10;&#9;C251.863754,87.089645 251.987930,87.073616 251.946014,86.746849 &#10;&#9;C250.907608,85.624344 249.911102,84.828613 248.914612,84.032867 &#10;z"/>
  <path fill="#F7E8A0" opacity="1.000000" stroke="none" d="&#10;M164.977844,5.624437 &#10;&#9;C143.751251,5.916511 122.244942,5.940803 100.244530,5.929916 &#10;&#9;C106.536270,4.595287 113.322113,3.295837 120.547737,1.969853 &#10;&#9;C128.683334,1.966995 136.379150,1.990670 144.544052,1.981262 &#10;&#9;C151.574799,3.084338 158.136459,4.220497 164.977844,5.624437 &#10;z"/>
  <path fill="#F1DDC1" opacity="1.000000" stroke="none" d="&#10;M25.623123,57.176369 &#10;&#9;C27.570644,56.448654 29.209780,55.855335 30.872282,55.336956 &#10;&#9;C40.556087,52.317448 50.518631,52.893738 60.444141,53.166378 &#10;&#9;C60.962875,53.180630 61.452911,54.239872 61.985119,55.188026 &#10;&#9;C53.816002,55.654312 45.575058,55.277676 37.437649,56.026344 &#10;&#9;C33.141655,56.421593 29.026115,58.778252 24.450371,60.345684 &#10;&#9;C24.489603,59.409809 24.907566,58.377594 25.623123,57.176369 &#10;z"/>
  <path fill="#9C87DD" opacity="1.000000" stroke="none" d="&#10;M261.281921,150.763000 &#10;&#9;C261.028076,138.341919 261.017273,125.603035 261.017090,112.386406 &#10;&#9;C261.373962,113.989304 261.720245,116.069946 262.116913,118.562256 &#10;&#9;C262.123932,126.679962 262.080566,134.386002 262.101379,142.559296 &#10;&#9;C261.951996,145.499451 261.738495,147.972336 261.281921,150.763000 &#10;z"/>
  <path fill="#F1DDC1" opacity="1.000000" stroke="none" d="&#10;M22.992699,61.156651 &#10;&#9;C23.030266,61.350487 22.792879,61.625607 22.307461,62.019264 &#10;&#9;C22.278868,61.837849 22.498306,61.537891 22.992699,61.156651 &#10;z"/>
  <path fill="#F1DDC1" opacity="1.000000" stroke="none" d="&#10;M253.804535,89.583923 &#10;&#9;C254.028427,89.184822 254.267288,89.122734 254.877518,89.026642 &#10;&#9;C255.837997,90.747322 256.427124,92.501999 257.024994,94.631790 &#10;&#9;C255.962326,93.311577 254.890930,91.616257 253.804535,89.583923 &#10;z"/>
  <path fill="#F8F8F8" opacity="1.000000" stroke="none" d="&#10;M102.735855,196.736328 &#10;&#9;C89.481987,210.084915 76.470901,223.176331 63.249714,236.479141 &#10;&#9;C53.573597,226.898788 44.014992,217.742020 34.868645,208.190491 &#10;&#9;C32.147327,205.348618 32.830536,201.490601 35.893284,198.842575 &#10;&#9;C39.144371,196.031738 42.684662,196.339066 45.738468,199.312714 &#10;&#9;C51.433846,204.858597 57.009090,210.527832 63.160782,216.671478 &#10;&#9;C72.224380,207.458984 81.055336,198.461563 89.912369,189.489899 &#10;&#9;C94.002937,185.346375 98.075943,181.181458 102.284645,177.159912 &#10;&#9;C105.626106,173.967041 109.628250,173.891953 112.506081,176.704468 &#10;&#9;C115.627098,179.754623 115.558395,183.706894 112.148315,187.293076 &#10;&#9;C109.167824,190.427444 106.040878,193.422531 102.735855,196.736328 &#10;z"/>
  <path fill="#F1DDC1" opacity="1.000000" stroke="none" d="&#10;M65.483955,55.904434 &#10;&#9;C71.595299,56.000023 78.121254,56.163250 84.644424,56.402428 &#10;&#9;C85.953285,56.450413 87.245667,56.842411 88.555626,56.982433 &#10;&#9;C100.815842,58.292957 113.060326,59.798683 125.345009,60.818626 &#10;&#9;C137.650574,61.840302 150.003647,62.277180 162.322189,63.161201 &#10;&#9;C167.564606,63.537418 172.768021,64.435852 177.996567,65.031845 &#10;&#9;C187.031265,66.061691 196.073273,67.027336 205.106186,68.072174 &#10;&#9;C205.688065,68.139473 206.218262,68.653397 206.895447,69.311798 &#10;&#9;C198.596970,68.988602 190.165375,68.419151 181.756622,67.611977 &#10;&#9;C170.201553,66.502769 158.667267,65.178780 147.117752,64.009346 &#10;&#9;C128.305771,62.104546 109.489563,60.241158 90.673286,58.378979 &#10;&#9;C82.417068,57.561890 74.156288,56.790787 65.483955,55.904434 &#10;z"/>
  <path fill="#F1DDC1" opacity="1.000000" stroke="none" d="&#10;M238.992935,73.993484 &#10;&#9;C241.975418,76.787918 244.957901,79.582352 247.953247,82.734787 &#10;&#9;C245.800186,81.618095 243.642624,80.130920 241.466782,78.671005 &#10;&#9;C233.970322,73.641197 225.585037,71.457039 216.679916,70.877029 &#10;&#9;C215.041626,70.770317 213.422928,70.362503 211.405899,69.962738 &#10;&#9;C215.001755,69.844246 219.073151,69.343689 222.950851,69.995438 &#10;&#9;C228.113327,70.863113 233.125076,72.627762 238.600784,74.003540 &#10;&#9;C239.000000,74.000000 238.992935,73.993484 238.992935,73.993484 &#10;z"/>
  <path fill="#F1DDC1" opacity="1.000000" stroke="none" d="&#10;M249.040527,84.330887 &#10;&#9;C249.911102,84.828613 250.907608,85.624344 251.891556,86.777710 &#10;&#9;C250.974808,86.299866 250.070618,85.464386 249.040527,84.330887 &#10;z"/>
  <path fill="#F1DDC1" opacity="1.000000" stroke="none" d="&#10;M251.919373,87.404022 &#10;&#9;C252.488708,87.580879 253.113647,88.072121 253.786911,88.873230 &#10;&#9;C253.215164,88.694870 252.595093,88.206642 251.919373,87.404022 &#10;z"/>
  <path fill="#F1DDC1" opacity="1.000000" stroke="none" d="&#10;M239.003265,74.003502 &#10;&#9;C239.304520,73.496452 239.602509,72.985901 239.900497,72.475357 &#10;&#9;C240.109528,72.655243 240.318573,72.835121 240.527618,73.014999 &#10;&#9;C240.204865,73.316978 239.882126,73.618965 239.276154,73.957214 &#10;&#9;C238.992935,73.993484 239.000000,74.000000 239.003265,74.003502 &#10;z"/>
</svg>